<svg id="Ebene_1" data-name="Ebene 1" xmlns="http://www.w3.org/2000/svg" viewBox="0 0 292.65 93.171"><defs><style>.cls-1{fill:#fff;}</style></defs><title>Artboard 1</title><path class="cls-1" d="M87.543,30.537l4.188-1.649A48.389,48.389,0,0,0,59.93,0L58.7,4.328A43.882,43.882,0,0,1,87.543,30.537Z"/><path class="cls-1" d="M95.1,46.585l-4.5,0a43.731,43.731,0,0,1-14.042,32.19l3.057,3.3A48.3,48.3,0,0,0,95.1,46.585Z"/><path class="cls-1" d="M9.7,15.325a47.921,47.921,0,0,0-9.607,18c-.025.087-.047.175-.068.262L0,33.669l4.336,1.205.08-.313a43.486,43.486,0,0,1,8.713-16.326Z"/><path class="cls-1" d="M28.921,86.765A43.688,43.688,0,0,1,9.681,70.23L5.888,72.652A48.179,48.179,0,0,0,27.105,90.883a48.86,48.86,0,0,0,6.312,2.288l1.232-4.328A44.323,44.323,0,0,1,28.921,86.765Z"/><path class="cls-1" d="M85.291,46.585h-4.5A34.142,34.142,0,0,1,46.673,80.714l0,4.5A38.6,38.6,0,0,0,85.291,46.585Z"/><path class="cls-1" d="M31.069,81.911l1.816-4.117a33.693,33.693,0,0,1-11.711-8.558,34.439,34.439,0,0,1-3.231-4.284L14.15,67.373a38.884,38.884,0,0,0,3.655,4.846A38.173,38.173,0,0,0,31.069,81.911Z"/><path class="cls-1" d="M75.75,28.769l3.838-2.35A38.546,38.546,0,0,0,57.244,9.436l-1.23,4.328a34.046,34.046,0,0,1,19.736,15Z"/><path class="cls-1" d="M9.459,36.269a38.323,38.323,0,0,0,.95,23.546l4.225-1.548a33.834,33.834,0,0,1-.843-20.78l.062-.241a33.759,33.759,0,0,1,6.767-12.68A34.412,34.412,0,0,1,44.528,12.528c.711-.045,1.434-.069,2.147-.069l0-4.5c-.809,0-1.627.027-2.434.079a38.931,38.931,0,0,0-27.052,13.62A38.221,38.221,0,0,0,9.525,36.013Z"/><path class="cls-1" d="M69.533,37.61a24.426,24.426,0,0,1,1.71,8.977l4.5,0A29.078,29.078,0,0,0,54.631,18.621L53.4,22.949A24.536,24.536,0,0,1,69.533,37.61Z"/><path class="cls-1" d="M66.446,67.894l-3.057-3.3A24.541,24.541,0,0,1,44,71.017l-.321-.037a24.437,24.437,0,0,1-6.936-1.92,24.324,24.324,0,0,1-7.171-4.839,24.719,24.719,0,0,1-2.721-3.136q-.453-.621-.867-1.268l-.105-.166a24.744,24.744,0,0,1-3.293-8.234c-.114-.565-.21-1.138-.283-1.7a24.336,24.336,0,0,1,.688-9.679l.044-.173a24.319,24.319,0,0,1,4.873-9.131,24.647,24.647,0,0,1,6.076-5.168l-2.324-3.853a29.1,29.1,0,0,0-7.184,6.111,28.808,28.808,0,0,0-5.772,10.82l-.049.189a28.816,28.816,0,0,0-.815,11.463c.087.672.2,1.351.336,2.019a29.256,29.256,0,0,0,3.888,9.725l.124.2q.492.769,1.024,1.5a29.208,29.208,0,0,0,3.221,3.712,28.8,28.8,0,0,0,8.493,5.732,28.941,28.941,0,0,0,8.206,2.27l.375.043a29.036,29.036,0,0,0,22.938-7.6Z"/><path class="cls-1" d="M46.672,27.22a19.4,19.4,0,0,0-17.635,11.39,19.751,19.751,0,0,0-1.029,2.835,19.206,19.206,0,0,0-.7,5.138l.009.228a19.287,19.287,0,0,0,3.055,10.2q.3.476.632.926A19.462,19.462,0,0,0,44.038,65.75l.275.037a18.663,18.663,0,0,0,2.356.161A19.412,19.412,0,0,0,66.036,46.586a19.627,19.627,0,0,0-3.856-11.6q-.381-.508-.8-.994c-.1-.115-.21-.214-.311-.327-.029-.032-.06-.061-.088-.093a19.4,19.4,0,0,0-2.567-2.389,20.1,20.1,0,0,0-6.445-3.224q-.608-.173-1.235-.308A19.449,19.449,0,0,0,46.672,27.22Zm3.121,4.834q.48.1.948.236a14.969,14.969,0,0,1,7.738,5.294.506.506,0,0,1,.1.1,14.971,14.971,0,0,1,2.943,8.9,14.872,14.872,0,0,1-14.849,14.86,14.225,14.225,0,0,1-1.792-.125l-.265-.035a14.916,14.916,0,0,1-9.969-6q-.252-.347-.483-.709a14.793,14.793,0,0,1-2.349-7.893c0-.053,0-.106-.006-.162a14.709,14.709,0,0,1,.535-3.878,15.229,15.229,0,0,1,.794-2.184,14.829,14.829,0,0,1,16.656-8.413Z"/><path class="cls-1" d="M117.994,12.672V17.1h6.6v2.215h-6.6v4.9h7.547V26.5H115.436V10.415h10.105v2.257Z"/><path class="cls-1" d="M141.59,20.24c0,4.149-2.559,6.471-6.6,6.471-4.062,0-6.6-2.322-6.6-6.471V10.415h2.559V20.2c0,2.795,1.461,4.235,4.041,4.235,2.537,0,4.043-1.44,4.043-4.235V10.415h2.559Z"/><path class="cls-1" d="M151.73,20.347h-3.547V26.5h-2.559V10.415h6.492c2.9,0,5.053,1.72,5.053,4.966a4.537,4.537,0,0,1-2.773,4.536l3.611,6.579h-2.881Zm.064-2.279a2.532,2.532,0,0,0,2.752-2.687,2.537,2.537,0,0,0-2.752-2.709h-3.633v5.4Z"/><path class="cls-1" d="M176.459,18.455a8.2,8.2,0,1,1-16.4,0,8.2,8.2,0,1,1,16.4,0Zm-13.8,0c0,3.741,2.385,5.977,5.611,5.977,3.2,0,5.59-2.236,5.59-5.977,0-3.762-2.387-5.977-5.59-5.977C165.041,12.479,162.656,14.693,162.656,18.455Z"/><path class="cls-1" d="M186.49,10.415a4.683,4.683,0,0,1,5.053,5.009,4.694,4.694,0,0,1-5.053,5.009h-4.021V26.5H179.91V10.415Zm-4.043,7.74h3.721a2.555,2.555,0,0,0,2.752-2.73,2.561,2.561,0,0,0-2.752-2.752h-3.721Z"/><path class="cls-1" d="M196.908,12.672V17.1h6.6v2.215h-6.6v4.9h7.547V26.5H194.35V10.415h10.105v2.257Z"/><path class="cls-1" d="M219.572,26.5l-1.484-3.59h-7.182l-1.5,3.59h-2.795L213.4,10.415h2.172L222.389,26.5Zm-2.451-5.87-2.6-6.256L211.9,20.626Z"/><path class="cls-1" d="M235.5,26.5l-7.934-11.352V26.5H225V10.415h2.15l7.955,11.373V10.415h2.559V26.5Z"/><path class="cls-1" d="M125.563,53.5V46.337h-7.568V53.5h-2.559V37.415h2.559v6.643h7.568V37.415h2.559V53.5Z"/><path class="cls-1" d="M134.822,39.672V44.1h6.6v2.215h-6.6v4.9h7.547V53.5H132.264V37.415h10.105v2.257Z"/><path class="cls-1" d="M157.484,53.5,156,49.905H148.82L147.314,53.5H144.52l6.795-16.082h2.172L160.3,53.5Zm-2.451-5.87-2.6-6.256-2.623,6.256Z"/><path class="cls-1" d="M173.086,51.217V53.5h-10.17V37.415h2.559v13.8Z"/><path class="cls-1" d="M180.557,39.672V53.5H178V39.672h-5.719V37.415h14v2.257Z"/><path class="cls-1" d="M199.063,53.5V46.337h-7.568V53.5h-2.559V37.415h2.559v6.643h7.568V37.415h2.559V53.5Z"/><path class="cls-1" d="M213.768,39.672v4.493H220v2.258h-6.236V53.5h-2.559V37.415h10.105v2.257Z"/><path class="cls-1" d="M239.51,45.455a8.2,8.2,0,1,1-16.4,0,8.2,8.2,0,1,1,16.4,0Zm-13.8,0c0,3.741,2.387,5.978,5.611,5.978,3.2,0,5.59-2.236,5.59-5.978,0-3.762-2.387-5.977-5.59-5.977C228.094,39.479,225.707,41.693,225.707,45.455Z"/><path class="cls-1" d="M249.068,47.347h-3.547V53.5h-2.559V37.415h6.492c2.9,0,5.053,1.72,5.053,4.966a4.537,4.537,0,0,1-2.773,4.536l3.611,6.579h-2.881Zm.064-2.279a2.7,2.7,0,1,0,0-5.4H245.5v5.4Z"/><path class="cls-1" d="M271.2,47.24c0,4.149-2.559,6.471-6.6,6.471-4.062,0-6.6-2.322-6.6-6.471V37.415h2.559V47.2c0,2.794,1.461,4.236,4.041,4.236,2.537,0,4.043-1.441,4.043-4.236V37.415H271.2Z"/><path class="cls-1" d="M290.113,53.5V43.155L284.8,53.367h-1.676l-5.332-10.212V53.5h-2.559V37.415h2.258l6.471,12.211,6.449-12.211h2.236V53.5Z"/><path class="cls-1" d="M129.9,73.1c0,4.815-2.859,7.589-7.287,7.589-4.344,0-7.7-3.01-7.7-8.234,0-5.246,3.289-8.234,7.676-8.234,3.676,0,6.686,2.107,7.2,5.762l-1.311.216c-.387-3.032-2.816-4.838-5.891-4.838-3.7,0-6.387,2.494-6.387,7.095s2.752,7.095,6.387,7.095c3.4,0,5.762-1.892,5.977-5.783h-5.891v-1.14H129.9Z"/><path class="cls-1" d="M144.426,80.5l-1.893-4.665h-7.781L132.838,80.5h-1.4l6.645-16.082h1.1L145.824,80.5Zm-2.365-5.74-3.418-8.385L135.2,74.756Z"/><path class="cls-1" d="M158.781,68.435l-1.27.086c-.172-2.021-1.74-3.182-4.02-3.182-2.709,0-4.043,1.44-4.043,3.2,0,2.279,1.785,2.709,4.3,3.29,3.547.795,5.568,1.569,5.568,4.386,0,3.1-2.516,4.472-5.59,4.472-3.225,0-5.74-1.591-5.955-4.429l1.289-.086c.193,2.106,2.15,3.4,4.666,3.4,2.43,0,4.3-.988,4.3-3.268s-1.8-2.709-4.729-3.375c-2.859-.688-5.139-1.333-5.139-4.344,0-2.364,1.719-4.364,5.311-4.364C156.438,64.221,158.609,65.747,158.781,68.435Z"/><path class="cls-1" d="M168.533,65.532V80.5h-1.268V65.532h-6.279V64.414h13.824v1.118Z"/><path class="cls-1" d="M179.064,65.532V71.6h7.525v1.117h-7.525v6.644h8.473V80.5H177.8V64.414h9.74v1.118Z"/><path class="cls-1" d="M190.723,80.5V64.414h1.268V80.5Z"/><path class="cls-1" d="M207.275,80.5l-9.418-13.7V80.5H196.59V64.414h1.053l9.418,13.717V64.414h1.289V80.5Z"/></svg>