<?xml version="1.0" encoding="utf-8"?>
<!-- Generator: Adobe Illustrator 17.0.0, SVG Export Plug-In . SVG Version: 6.00 Build 0)  -->
<!DOCTYPE svg PUBLIC "-//W3C//DTD SVG 1.1//EN" "http://www.w3.org/Graphics/SVG/1.1/DTD/svg11.dtd">
<svg version="1.1" id="Ebene_1" xmlns="http://www.w3.org/2000/svg" xmlns:xlink="http://www.w3.org/1999/xlink" x="0px" y="0px"
	 width="212.598px" height="212.598px" viewBox="-0.748 276.646 212.598 212.598"
	 enable-background="new -0.748 276.646 212.598 212.598" xml:space="preserve">
<g>
	<path fill="#FFFFFF" d="M186.053,349.301l8.519-3.354c-11.208-28.61-35.134-50.345-64.686-58.761l-2.502,8.804
		C154.191,303.624,175.893,323.344,186.053,349.301z"/>
	<path fill="#FFFFFF" d="M201.424,381.944h-9.153c0.046,24.858-10.311,48.602-28.563,65.478l6.218,6.713
		C190.034,435.517,201.452,409.347,201.424,381.944z"/>
	<path fill="#FFFFFF" d="M27.712,318.358c-9.067,10.66-15.732,23.148-19.542,36.614c-0.051,0.177-0.096,0.356-0.138,0.533
		l-0.051,0.167l8.82,2.451l0.163-0.637c3.457-12.213,9.501-23.539,17.723-33.209L27.712,318.358z"/>
	<path fill="#FFFFFF" d="M66.809,463.674c-16.085-7.094-29.705-18.798-39.136-33.634l-7.715,4.927
		c10.402,16.357,25.421,29.263,43.158,37.084c4.168,1.844,8.458,3.399,12.839,4.654l2.506-8.804
		C74.485,466.761,70.592,465.349,66.809,463.674z"/>
	<path fill="#FFFFFF" d="M181.472,381.944h-9.153c-0.015,38.326-31.074,69.395-69.4,69.422v9.153
		c43.363,0.02,78.533-35.116,78.553-78.48C181.472,382.008,181.472,381.976,181.472,381.944z"/>
	<path fill="#FFFFFF" d="M71.179,453.801l3.694-8.374c-9.11-4.004-17.239-9.945-23.821-17.408c-2.414-2.729-4.611-5.643-6.572-8.714
		l-7.715,4.925c2.218,3.474,4.703,6.77,7.435,9.857C51.654,442.538,60.861,449.265,71.179,453.801z"/>
	<path fill="#FFFFFF" d="M162.064,345.704l7.807-4.78c-10.271-16.817-26.497-29.151-45.45-34.545l-2.502,8.804
		c16.74,4.764,31.073,15.658,40.145,30.512V345.704z"/>
	<path fill="#FFFFFF" d="M27.222,360.96c-4.402,15.772-3.726,32.529,1.932,47.895l8.594-3.149
		c-4.995-13.56-5.595-28.349-1.715-42.269l0.126-0.49c2.684-9.486,7.378-18.283,13.765-25.792
		c12.242-14.391,29.781-23.222,48.631-24.487c1.446-0.092,2.917-0.14,4.367-0.14v-9.153c-1.646,0-3.309,0.055-4.951,0.161
		c-21.33,1.429-41.176,11.421-55.027,27.704c-7.232,8.501-12.549,18.46-15.589,29.2L27.222,360.96z"/>
	<path fill="#FFFFFF" d="M149.418,363.688c2.298,5.814,3.478,12.009,3.478,18.26h9.153c0-26.426-17.529-49.646-42.944-56.886
		l-2.504,8.804C131.599,338.135,143.739,349.167,149.418,363.688z"/>
	<path fill="#FFFFFF" d="M143.139,425.289l-6.218-6.713c-10.623,9.879-25.019,14.648-39.439,13.065l-0.653-0.075
		c-4.87-0.598-9.624-1.914-14.109-3.905c-5.411-2.383-10.352-5.717-14.587-9.843c-2.021-1.967-3.872-4.101-5.535-6.379
		c-0.614-0.842-1.202-1.702-1.764-2.579l-0.214-0.338c-3.223-5.134-5.492-10.808-6.698-16.749c-0.232-1.149-0.427-2.315-0.576-3.458
		c-0.86-6.59-0.384-13.286,1.399-19.688l0.09-0.352c1.933-6.831,5.314-13.165,9.912-18.573c3.522-4.152,7.696-7.702,12.359-10.512
		l-4.727-7.837c-5.515,3.321-10.45,7.52-14.613,12.43c-5.448,6.409-9.452,13.915-11.741,22.009l-0.1,0.384
		c-2.113,7.582-2.676,15.512-1.658,23.317c0.177,1.367,0.407,2.748,0.683,4.107c1.425,7.016,4.104,13.717,7.909,19.782l0.252,0.407
		c0.667,1.043,1.361,2.06,2.083,3.051c1.968,2.696,4.16,5.222,6.552,7.551c5.015,4.888,10.866,8.837,17.276,11.659
		c5.306,2.354,10.931,3.91,16.692,4.617l0.763,0.087c17.06,1.871,34.09-3.772,46.658-15.459L143.139,425.289z"/>
	<path fill="#FFFFFF" d="M102.917,342.554c-15.464,0.027-29.487,9.084-35.871,23.168c-0.844,1.866-1.543,3.794-2.093,5.767
		c-0.945,3.403-1.424,6.919-1.424,10.451l0.018,0.464c0.084,7.362,2.237,14.552,6.214,20.748c0.407,0.646,0.835,1.273,1.286,1.884
		c6.319,8.671,15.886,14.407,26.512,15.892l0.559,0.075c1.589,0.21,3.19,0.32,4.792,0.327c21.732-0.05,39.339-17.652,39.394-39.384
		c-0.036-8.5-2.784-16.766-7.843-23.596c-0.517-0.689-1.059-1.363-1.627-2.022c-0.203-0.234-0.427-0.435-0.633-0.665
		c-0.059-0.065-0.122-0.124-0.179-0.189c-1.59-1.774-3.338-3.401-5.222-4.859c-3.939-2.958-8.38-5.18-13.11-6.558
		c-0.824-0.235-1.662-0.443-2.512-0.626C108.464,342.849,105.694,342.555,102.917,342.554z M109.265,352.386
		c0.651,0.136,1.294,0.296,1.928,0.48c6.264,1.811,11.782,5.586,15.74,10.769c0.077,0.058,0.145,0.126,0.203,0.203
		c3.882,5.238,5.98,11.584,5.986,18.104c-0.013,16.679-13.525,30.201-30.204,30.227c-1.219-0.008-2.437-0.093-3.645-0.254
		l-0.539-0.071c-8.133-1.155-15.449-5.559-20.278-12.205c-0.342-0.471-0.669-0.951-0.982-1.442
		c-3.08-4.792-4.737-10.359-4.778-16.055c0-0.108,0-0.216-0.012-0.329c0.01-2.666,0.376-5.319,1.088-7.888
		c0.424-1.52,0.964-3.005,1.615-4.443c5.839-12.985,19.963-20.12,33.88-17.113L109.265,352.386z"/>
</g>
</svg>
